# xmcd CD database file
#
# Track frame offsets:
#	150
#	17840
#	35957
#	51750
#	74530
#	93557
#	111182
#	131270
#	151415
#	167067
#	182622
#	202522
#	224685
#	241875
#
# Disc length: 3506 seconds
#
# Revision: 5
# Processed by: cddbd v1.5.2PL0 Copyright (c) Steve Scherf et al.
# Submitted via: CDex 1.70beta2
#
DISCID=c30db00e
DTITLE=オムニバス - New Music Best Collection 12
DYEAR=1991
DGENRE=JPop
TTITLE0=もんたよしのり&大橋純子 - 夏おんなソニア
TTITLE1=もんた&ブラザーズ - ダンシング・オールナイト
TTITLE2=もんた&ブラザーズ - DESIRE（デザイアー）
TTITLE3=伊藤敏博 - サヨナラ模様
TTITLE4=大橋純子&美乃家セントラル・ステイション - サファリ・ナイト
TTITLE5=大橋純子 - たそがれマイ・ラブ
TTITLE6=内藤やす子 - 六本木ララバイ
TTITLE7=あみん - 待つわ
TTITLE8=石川セリ - キ・サ・ラ恋人
TTITLE9=石川セリ - 彩・夏・夢
TTITLE10=桃井かおり - バイバイ子守唄
TTITLE11=沢田聖子 - あなたからF.O.
TTITLE12=大橋純子&美乃家セントラル・ステイション - シンプル・ラブ
TTITLE13=大橋純子 - シルエット・ロマンス
EXTD=YEAR: 1991
EXTT0=
EXTT1=
EXTT2=
EXTT3=
EXTT4=
EXTT5=
EXTT6=
EXTT7=
EXTT8=
EXTT9=
EXTT10=
EXTT11=
EXTT12=
EXTT13=
PLAYORDER=
